<svg width="40" height="41" viewBox="0 0 40 41" fill="none" xmlns="http://www.w3.org/2000/svg">
<path d="M19.983 3.0874C21.0044 3.0874 22.0041 3.23574 22.7574 3.51709V3.51807L31.0748 6.63525H31.0758C33.2953 7.46202 35.0504 10.0076 35.0504 12.3667V24.7495C35.0504 25.8367 34.7062 27.0895 34.1237 28.2485C33.5777 29.3348 32.8403 30.3024 32.0309 30.9556L31.8678 31.0825L24.7008 36.4321L24.6949 36.437C23.4122 37.4261 21.7236 37.9331 19.9996 37.9331C18.2769 37.933 16.5846 37.4263 15.2643 36.4478H15.2633L8.09924 31.0991C7.22654 30.4484 6.4252 29.4208 5.84241 28.2593C5.25956 27.0976 4.91663 25.8447 4.91663 24.7661V12.3667C4.91663 10.0812 6.5633 7.62039 8.6842 6.71729L8.89124 6.63525H8.89221L17.2086 3.51807C17.962 3.23655 18.9614 3.08743 19.983 3.0874ZM20.0006 4.58545C19.3018 4.58736 18.5814 4.67016 17.9879 4.84912L17.7418 4.93115L17.7408 4.93213L9.42444 8.04834H9.42346C8.59596 8.35993 7.85473 9.02245 7.32385 9.79053C6.79277 10.5589 6.43323 11.4898 6.43323 12.3833V24.7661C6.43323 25.6606 6.74381 26.6893 7.20081 27.6011C7.60051 28.3986 8.13712 29.1561 8.73889 29.687L9.00061 29.9009L16.1676 35.2505C17.2294 36.0444 18.628 36.4252 20.0016 36.4253C21.2897 36.4253 22.6029 36.0902 23.6432 35.395L23.8473 35.2515L23.8492 35.2505L31.0153 29.9009L31.0162 29.8999C31.731 29.3638 32.3666 28.5049 32.8219 27.5942C33.2772 26.6836 33.5836 25.6596 33.5836 24.7661V12.3667C33.5836 11.4807 33.2232 10.5539 32.693 9.78662C32.1957 9.06719 31.5141 8.43786 30.7516 8.09814L30.5973 8.03369L30.5924 8.03174L22.275 4.91455L22.2662 4.91162L22.0182 4.83252C21.4213 4.66197 20.7 4.58354 20.0006 4.58545Z" fill="#FAFAFA" stroke="#FAFAFA"/>
<path d="M24.4039 15.27C24.674 15.0003 25.1154 14.9832 25.4069 15.2192L25.4635 15.27C25.7336 15.5402 25.75 15.9824 25.5133 16.2739L25.4635 16.3296L18.2965 23.4966C18.1452 23.6478 17.9574 23.7163 17.7662 23.7163C17.5991 23.7162 17.4352 23.6637 17.2955 23.5493L17.2369 23.4966L14.5533 20.813C14.2836 20.543 14.2666 20.1015 14.5026 19.8101L14.5533 19.7534C14.8234 19.4833 15.2657 19.4663 15.5573 19.7026L15.6129 19.7534L17.7662 21.9067L18.1207 21.5532L24.4039 15.27Z" fill="#FAFAFA" stroke="#FAFAFA"/>
</svg>
